<?xml version="1.0" encoding="UTF-8"?><svg id="Layer_1" xmlns="http://www.w3.org/2000/svg" width="843.37" height="843.37" viewBox="0 0 843.37 843.37"><defs><style>.cls-1{fill:#1a1916;}.cls-2{fill:#d81b60;}</style></defs><path class="cls-1" d="M478.11,49.86v35.81h282.09v282.09h35.81V49.86h-317.89ZM760.2,480.68v282.09h-282.09v35.81h317.89v-317.89h-35.81ZM83.1,480.68h-35.58v317.89h317.66v-35.81H83.1v-282.09ZM47.52,49.86v317.89h35.58V85.67h282.09v-35.81H47.52Z"/><rect class="cls-1" x="403.8" width="35.73" height="87.84"/><rect class="cls-1" x="403.8" y="755.51" width="35.73" height="87.86"/><rect class="cls-1" x="755.51" y="406.38" width="87.86" height="35.68"/><rect class="cls-1" y="406.38" width="87.87" height="35.68"/><path class="cls-2" d="M119.31,119.31v604.75h604.75V119.31H119.31ZM186.39,186.39h470.6v211.04h-104.74v259.56H186.39V186.39Z"/></svg>