<svg width="320" height="150" viewBox="0 0 320 150" fill="none" xmlns="http://www.w3.org/2000/svg">
  <path d="M18 121C28 91 33 64 33 25C33 61 35 94 48 109C60 123 73 103 79 72C83 52 87 37 91 25C91 52 93 87 103 114C108 128 120 126 130 104C138 87 144 59 149 24C150 57 153 90 163 107C172 121 183 109 193 83C201 63 207 44 211 12C212 52 214 83 221 108C226 125 236 126 244 111C248 102 250 84 250 49L251 16" stroke="#000000" stroke-width="6.5" stroke-linecap="round" stroke-linejoin="round"/>
  <path d="M133 88C164 67 198 46 304 19" stroke="#000000" stroke-width="7" stroke-linecap="round"/>
  <path d="M132 92C118 103 109 113 109 123C110 131 126 136 156 136H286" stroke="#000000" stroke-width="6.5" stroke-linecap="round" stroke-linejoin="round"/>
  <path d="M147 106C153 116 162 121 172 117" stroke="#000000" stroke-width="5.2" stroke-linecap="round"/>
</svg>
